PathFileType	4	(X/Y/Z)	output.trc
DataRate	CameraRate	NumFrames	NumMarkers	Units	OrigDataRate	OrigDataStartFrame	OrigNumFrames
120	120	10	17	m	120	560	4477
Frame#	Time	Elbow_Midpoint			GH			Wrist_Midpoint			US			RS			C7			EM			EL			T8			SC			AC			AI			TS			AA			IJx			PX00			PC
		X1	Y1	Z1	X2	Y2	Z2	X3	Y3	Z3	X4	Y4	Z4	X5	Y5	Z5	X6	Y6	Z6	X7	Y7	Z7	X8	Y8	Z8	X9	Y9	Z9	X10	Y10	Z10	X11	Y11	Z11	X12	Y12	Z12	X13	Y13	Z13	X14	Y14	Z14	X15	Y15	Z15	X16	Y16	Z16	X17	Y17	Z17
559	4.658333	0.354355	0.906414	-0.463895	0.328840	1.172410	-0.472097	0.396122	0.724566	-0.598098	0.410522	0.717596	-0.581917	0.381723	0.731537	-0.614278	0.164409	1.303868	-0.465223	0.331716	0.905681	-0.442582	0.383839	0.896144	-0.470620	0.144887	1.079247	-0.381848	0.174112	1.204602	-0.524157	0.293756	1.222240	-0.486309	0.240139	1.090646	-0.364880	0.220743	1.242372	-0.414091	0.343407	1.209585	-0.478490	0.161230	1.207415	-0.528238	0.147110	1.018578	-0.567246	0.286562	1.183342	-0.502503
560	4.666667	0.354634	0.906316	-0.463472	0.328822	1.172383	-0.471992	0.396039	0.727185	-0.601388	0.410384	0.719826	-0.585331	0.381695	0.734543	-0.617446	0.164519	1.303837	-0.465197	0.331960	0.905660	-0.442456	0.384164	0.896187	-0.470365	0.144871	1.079215	-0.381852	0.174201	1.204572	-0.524137	0.293850	1.222215	-0.486279	0.240070	1.090545	-0.365003	0.220758	1.242309	-0.414131	0.343490	1.209545	-0.478411	0.161321	1.207392	-0.528222	0.147135	1.018564	-0.567255	0.286667	1.183328	-0.502508
561	4.675000	0.354928	0.906236	-0.463081	0.328849	1.172360	-0.471942	0.395931	0.729924	-0.604701	0.410227	0.722179	-0.588784	0.381634	0.737669	-0.620619	0.164645	1.303803	-0.465176	0.332190	0.905646	-0.442343	0.384467	0.896220	-0.470131	0.144840	1.079187	-0.381852	0.174290	1.204537	-0.524120	0.293940	1.222191	-0.486258	0.240007	1.090453	-0.365124	0.220779	1.242254	-0.414171	0.343569	1.209505	-0.478348	0.161413	1.207364	-0.528209	0.147131	1.018548	-0.567259	0.286765	1.183317	-0.502520
562	4.683333	0.355249	0.906181	-0.462718	0.328922	1.172341	-0.471943	0.395788	0.732787	-0.608027	0.410045	0.724657	-0.592266	0.381532	0.740917	-0.623787	0.164782	1.303770	-0.465163	0.332399	0.905641	-0.442238	0.384742	0.896243	-0.469912	0.144796	1.079166	-0.381850	0.174377	1.204499	-0.524106	0.294019	1.222171	-0.486239	0.239942	1.090384	-0.365224	0.220809	1.242220	-0.414199	0.343637	1.209462	-0.478299	0.161504	1.207334	-0.528199	0.147104	1.018529	-0.567257	0.286843	1.183309	-0.502530
563	4.691667	0.355589	0.906144	-0.462371	0.329034	1.172329	-0.471980	0.395611	0.735779	-0.611359	0.409837	0.727266	-0.595773	0.381386	0.744292	-0.626944	0.164918	1.303741	-0.465158	0.332586	0.905645	-0.442138	0.384987	0.896260	-0.469705	0.144747	1.079154	-0.381845	0.174459	1.204461	-0.524095	0.294081	1.222159	-0.486221	0.239870	1.090344	-0.365296	0.220847	1.242214	-0.414206	0.343688	1.209418	-0.478262	0.161589	1.207305	-0.528192	0.147067	1.018509	-0.567249	0.286890	1.183309	-0.502534
564	4.700000	0.355927	0.906104	-0.462021	0.329162	1.172321	-0.472037	0.395406	0.738907	-0.614696	0.409608	0.730013	-0.599303	0.381204	0.747800	-0.630090	0.165039	1.303717	-0.465161	0.332754	0.905655	-0.442044	0.385210	0.896273	-0.469509	0.144703	1.079149	-0.381837	0.174533	1.204426	-0.524089	0.294120	1.222157	-0.486201	0.239786	1.090333	-0.365342	0.220893	1.242240	-0.414187	0.343716	1.209373	-0.478241	0.161666	1.207279	-0.528189	0.147034	1.018489	-0.567237	0.286900	1.183321	-0.502532
565	4.708333	0.356246	0.906042	-0.461657	0.329280	1.172314	-0.472100	0.395180	0.742176	-0.618039	0.409366	0.732903	-0.602856	0.380994	0.751449	-0.633222	0.165140	1.303698	-0.465169	0.332911	0.905664	-0.441962	0.385420	0.896287	-0.469325	0.144670	1.079149	-0.381828	0.174597	1.204397	-0.524085	0.294135	1.222169	-0.486181	0.239690	1.090347	-0.365369	0.220944	1.242296	-0.414143	0.343719	1.209330	-0.478238	0.161732	1.207256	-0.528189	0.147013	1.018470	-0.567221	0.286872	1.183347	-0.502528
566	4.716667	0.356543	0.905954	-0.461280	0.329365	1.172302	-0.472159	0.394935	0.745592	-0.621385	0.409108	0.735939	-0.606428	0.380762	0.755245	-0.636341	0.165221	1.303684	-0.465181	0.333064	0.905668	-0.441896	0.385631	0.896304	-0.469154	0.144654	1.079151	-0.381819	0.174651	1.204373	-0.524085	0.294130	1.222192	-0.486164	0.239587	1.090381	-0.365384	0.220999	1.242375	-0.414080	0.343702	1.209289	-0.478252	0.161788	1.207236	-0.528191	0.147005	1.018451	-0.567205	0.286811	1.183386	-0.502525
567	4.725000	0.356827	0.905846	-0.460903	0.329406	1.172284	-0.472209	0.394669	0.749152	-0.624727	0.408829	0.739117	-0.610012	0.380509	0.759187	-0.639443	0.165286	1.303673	-0.465196	0.333220	0.905662	-0.441851	0.385849	0.896324	-0.468998	0.144654	1.079154	-0.381811	0.174697	1.204353	-0.524087	0.294113	1.222217	-0.486153	0.239491	1.090424	-0.365390	0.221057	1.242460	-0.414010	0.343675	1.209250	-0.478280	0.161835	1.207219	-0.528195	0.147008	1.018434	-0.567190	0.286735	1.183428	-0.502525
568	4.733333	0.357106	0.905732	-0.460540	0.329404	1.172258	-0.472245	0.394378	0.752855	-0.628060	0.408523	0.742436	-0.613599	0.380234	0.763275	-0.642521	0.165341	1.303665	-0.465212	0.333381	0.905645	-0.441832	0.386079	0.896348	-0.468859	0.144672	1.079159	-0.381805	0.174736	1.204338	-0.524093	0.294103	1.222230	-0.486157	0.239422	1.090461	-0.365393	0.221115	1.242530	-0.413961	0.343657	1.209209	-0.478319	0.161875	1.207206	-0.528202	0.147018	1.018419	-0.567178	0.286674	1.183452	-0.502534
